Coordinates
version=1
nRows=14
nColumns=24
inDegrees=yes

Units are S.I. units (second, meters, Newtons, ...)
Angles are in degrees.

endheader
time	pelvis_tilt	pelvis_list	pelvis_rotation	pelvis_tx	pelvis_ty	pelvis_tz	hip_flexion_r	hip_adduction_r	hip_rotation_r	knee_angle_r	ankle_angle_r	subtalar_angle_r	mtp_angle_r	hip_flexion_l	hip_adduction_l	hip_rotation_l	knee_angle_l	ankle_angle_l	subtalar_angle_l	mtp_angle_l	lumbar_extension	lumbar_bending	lumbar_rotation
      4.09500000	    -10.99467587	      1.93139289	     -1.39700207	     -1.92811211	     -0.01550584	      0.42355567	     37.20440079	     -0.95638150	     -2.83069467	    -50.69485127	    -11.27415287	    -11.19657200	     12.17632463	      7.23506783	      5.63152710	      9.80451666	    -11.35669906	      4.79684262	      0.62232383	      6.02046427	      7.24812292	     -2.19938745	     -0.44471459
      4.10000000	    -11.03963891	      1.82316659	     -1.01140162	     -1.92280390	     -0.01576340	      0.42339203	     37.45246150	     -1.12185811	     -3.28360993	    -49.17472353	    -10.83726892	    -10.58189664	     12.16537692	      6.77028260	      5.52854932	     10.07168964	    -11.09401694	      4.98700444	      0.86346372	      6.02057488	      7.20450755	     -2.19323332	     -0.83421650
      4.10500000	    -11.12009419	      1.70097696	     -0.69588906	     -1.91746502	     -0.01607449	      0.42332832	     37.69061764	     -1.21667216	     -3.64983360	    -47.55651222	    -10.41508492	     -9.93990330	     12.15149039	      6.35095502	      5.39726836	     10.25522152	    -10.84671659	      5.15485417	      1.05615882	      6.01220952	      7.20516173	     -2.15804033	     -1.13089272
      4.11000000	    -11.20215727	      1.58881815	     -0.37546896	     -1.91212806	     -0.01640187	      0.42328779	     37.88876214	     -1.32748039	     -4.01655506	    -45.86480941	     -9.99001282	     -9.21442684	     12.16578225	      5.94729965	      5.27348329	     10.39943713	    -10.61867033	      5.30827446	      1.26112927	      6.02154531	      7.20368323	     -2.13888099	     -1.44996130
      4.11500000	    -11.30791601	      1.47993325	     -0.06270198	     -1.90677586	     -0.01677154	      0.42326427	     38.07134570	     -1.43855593	     -4.36679348	    -44.10061711	     -9.58866206	     -8.41683836	     12.23465887	      5.56886763	      5.14570728	     10.55362994	    -10.38900559	      5.46053924	      1.48809449	      6.07129049	      7.22960197	     -2.11906494	     -1.71338035
      4.12000000	    -11.41801791	      1.37415776	      0.25119181	     -1.90141477	     -0.01716106	      0.42328304	     38.21311233	     -1.55049408	     -4.70567915	    -42.26400496	     -9.18605511	     -7.55684930	     12.32424538	      5.20497751	      5.01600299	     10.67619138	    -10.17177854	      5.59697497	      1.71714027	      6.14003728	      7.25907615	     -2.11277066	     -1.97388278
      4.12500000	    -11.49064938	      1.28298659	      0.60167029	     -1.89607494	     -0.01751771	      0.42325160	     38.26648837	     -1.70047321	     -5.04815149	    -40.36625287	     -8.74943090	     -6.59844065	     12.40066867	      4.82729141	      4.90787091	     10.77926962	     -9.99674387	      5.72223073	      1.96904007	      6.23299230	      7.23870998	     -2.12297269	     -2.31115721
      4.13000000	    -11.59785694	      1.19203716	      0.91724979	     -1.89065395	     -0.01793153	      0.42326414	     38.31829625	     -1.83472504	     -5.38269166	    -38.41172695	     -8.36698211	     -5.61529132	     12.49248124	      4.47226093	      4.78973748	     10.88458631	     -9.80375586	      5.83911100	      2.22018064	      6.34396456	      7.27044202	     -2.12492462	     -2.53815797
      4.13500000	    -11.69653113	      1.10889187	      1.24022667	     -1.88522566	     -0.01834741	      0.42330649	     38.31713965	     -1.97553680	     -5.70015907	    -36.40522493	     -8.00211471	     -4.60155850	     12.57578166	      4.12347180	      4.67666766	     10.96786489	     -9.63528782	      5.94072659	      2.47456341	      6.47234223	      7.28962260	     -2.14219707	     -2.79160180
      4.14000000	    -11.76890355	      1.03884043	      1.58286068	     -1.87977700	     -0.01874473	      0.42332604	     38.24551606	     -2.14122541	     -6.02317362	    -34.36167732	     -7.65581188	     -3.57166076	     12.62806424	      3.76208166	      4.57801322	     11.04510200	     -9.49629412	      6.02889590	      2.74876031	      6.62206258	      7.27927412	     -2.17275844	     -3.06833645
      4.14500000	    -11.80366735	      0.97796709	      1.94156828	     -1.87434601	     -0.01911637	      0.42334674	     38.09448088	     -2.32071883	     -6.34454186	    -32.28792449	     -7.33510917	     -2.55611389	     12.61845138	      3.38821721	      4.48839180	     11.11892482	     -9.40820862	      6.11782598	      3.02829795	      6.79592269	      7.22061686	     -2.21452671	     -3.36927738
      4.15000000	    -11.85763182	      0.91649355	      2.27194611	     -1.86880645	     -0.01952450	      0.42338592	     37.92951304	     -2.48689291	     -6.68029196	    -30.19517016	     -7.07906897	     -1.59644293	     12.58851006	      3.02578290	      4.39179041	     11.18554685	     -9.31562199	      6.19259237	      3.30586871	      6.96615238	      7.20027716	     -2.24632702	     -3.60172039
      4.15500000	    -11.89191410	      0.86043239	      2.60583380	     -1.86322085	     -0.01992775	      0.42344947	     37.71144686	     -2.65876774	     -7.04620759	    -28.09757635	     -6.86689765	     -0.68589794	     12.52658971	      2.65239214	      4.29454234	     11.25211577	     -9.24578973	      6.26480743	      3.59845598	      7.14839520	      7.16626447	     -2.28345237	     -3.84367751
      4.16000000	    -11.98003296	      0.79767384	      2.88534728	     -1.85755712	     -0.02042717	      0.42359001	     37.52772117	     -2.78542033	     -7.37800732	    -25.99961972	     -6.73144181	      0.12588936	     12.45310975	      2.34611310	      4.18727704	     11.32358771	     -9.21314902	      6.33830803	      3.84270519	      7.30632305	      7.20180368	     -2.30799701	     -3.96586546
